<mxfile host="app.diagrams.net" modified="2024-07-17T07:06:55.868Z" agent="Mozilla/5.0 (Windows NT 10.0; Win64; x64) AppleWebKit/537.36 (KHTML, like Gecko) Chrome/126.0.0.0 Safari/537.36" etag="iYsKEiMxmNjstg7I5WFx" version="24.7.0" type="github">
  <diagram id="C5RBs43oDa-KdzZeNtuy" name="Page-1">
    <mxGraphModel dx="2353" dy="2075" grid="1" gridSize="10" guides="1" tooltips="1" connect="1" arrows="1" fold="1" page="1" pageScale="1" pageWidth="827" pageHeight="1169" math="0" shadow="0">
      <root>
        <mxCell id="WIyWlLk6GJQsqaUBKTNV-0" />
        <mxCell id="WIyWlLk6GJQsqaUBKTNV-1" parent="WIyWlLk6GJQsqaUBKTNV-0" />
        <mxCell id="WIyWlLk6GJQsqaUBKTNV-2" value="" style="rounded=0;html=1;jettySize=auto;orthogonalLoop=1;fontSize=11;endArrow=block;endFill=0;endSize=8;strokeWidth=1;shadow=0;labelBackgroundColor=none;edgeStyle=orthogonalEdgeStyle;" parent="WIyWlLk6GJQsqaUBKTNV-1" source="WIyWlLk6GJQsqaUBKTNV-3" target="WIyWlLk6GJQsqaUBKTNV-6" edge="1">
          <mxGeometry relative="1" as="geometry" />
        </mxCell>
        <mxCell id="WIyWlLk6GJQsqaUBKTNV-3" value="read a non 0 key to start" style="rounded=1;whiteSpace=wrap;html=1;fontSize=12;glass=0;strokeWidth=1;shadow=0;" parent="WIyWlLk6GJQsqaUBKTNV-1" vertex="1">
          <mxGeometry x="354" y="-90" width="120" height="40" as="geometry" />
        </mxCell>
        <mxCell id="WIyWlLk6GJQsqaUBKTNV-5" value="0" style="edgeStyle=orthogonalEdgeStyle;rounded=0;html=1;jettySize=auto;orthogonalLoop=1;fontSize=11;endArrow=block;endFill=0;endSize=8;strokeWidth=1;shadow=0;labelBackgroundColor=none;" parent="WIyWlLk6GJQsqaUBKTNV-1" source="WIyWlLk6GJQsqaUBKTNV-6" target="WIyWlLk6GJQsqaUBKTNV-7" edge="1">
          <mxGeometry y="10" relative="1" as="geometry">
            <mxPoint as="offset" />
          </mxGeometry>
        </mxCell>
        <mxCell id="HSAPeW3og0Ia34DbzU-y-3" value="not 0" style="edgeStyle=orthogonalEdgeStyle;rounded=0;orthogonalLoop=1;jettySize=auto;html=1;" edge="1" parent="WIyWlLk6GJQsqaUBKTNV-1" source="WIyWlLk6GJQsqaUBKTNV-6">
          <mxGeometry relative="1" as="geometry">
            <mxPoint x="414" y="110" as="targetPoint" />
          </mxGeometry>
        </mxCell>
        <mxCell id="WIyWlLk6GJQsqaUBKTNV-6" value="the input is 0 or not" style="rhombus;whiteSpace=wrap;html=1;shadow=0;fontFamily=Helvetica;fontSize=12;align=center;strokeWidth=1;spacing=6;spacingTop=-4;" parent="WIyWlLk6GJQsqaUBKTNV-1" vertex="1">
          <mxGeometry x="337" y="-10" width="154" height="80" as="geometry" />
        </mxCell>
        <mxCell id="WIyWlLk6GJQsqaUBKTNV-7" value="exit program" style="rounded=1;whiteSpace=wrap;html=1;fontSize=12;glass=0;strokeWidth=1;shadow=0;" parent="WIyWlLk6GJQsqaUBKTNV-1" vertex="1">
          <mxGeometry x="534" y="10" width="120" height="40" as="geometry" />
        </mxCell>
        <mxCell id="HSAPeW3og0Ia34DbzU-y-5" value="" style="edgeStyle=orthogonalEdgeStyle;rounded=0;orthogonalLoop=1;jettySize=auto;html=1;" edge="1" parent="WIyWlLk6GJQsqaUBKTNV-1" source="HSAPeW3og0Ia34DbzU-y-0" target="HSAPeW3og0Ia34DbzU-y-4">
          <mxGeometry relative="1" as="geometry" />
        </mxCell>
        <mxCell id="HSAPeW3og0Ia34DbzU-y-0" value="Game Start&lt;div&gt;player1 roll 2 dices&lt;/div&gt;" style="rounded=1;whiteSpace=wrap;html=1;" vertex="1" parent="WIyWlLk6GJQsqaUBKTNV-1">
          <mxGeometry x="355" y="300" width="120" height="60" as="geometry" />
        </mxCell>
        <mxCell id="HSAPeW3og0Ia34DbzU-y-7" value="" style="edgeStyle=orthogonalEdgeStyle;rounded=0;orthogonalLoop=1;jettySize=auto;html=1;" edge="1" parent="WIyWlLk6GJQsqaUBKTNV-1" source="HSAPeW3og0Ia34DbzU-y-4" target="HSAPeW3og0Ia34DbzU-y-6">
          <mxGeometry relative="1" as="geometry" />
        </mxCell>
        <mxCell id="HSAPeW3og0Ia34DbzU-y-4" value="Player2 row 2 dices" style="rounded=1;whiteSpace=wrap;html=1;" vertex="1" parent="WIyWlLk6GJQsqaUBKTNV-1">
          <mxGeometry x="354" y="390" width="120" height="60" as="geometry" />
        </mxCell>
        <mxCell id="HSAPeW3og0Ia34DbzU-y-10" value="no" style="edgeStyle=orthogonalEdgeStyle;rounded=0;orthogonalLoop=1;jettySize=auto;html=1;" edge="1" parent="WIyWlLk6GJQsqaUBKTNV-1" source="HSAPeW3og0Ia34DbzU-y-6">
          <mxGeometry relative="1" as="geometry">
            <mxPoint x="640" y="680" as="targetPoint" />
          </mxGeometry>
        </mxCell>
        <mxCell id="HSAPeW3og0Ia34DbzU-y-11" value="yes" style="edgeStyle=orthogonalEdgeStyle;rounded=0;orthogonalLoop=1;jettySize=auto;html=1;" edge="1" parent="WIyWlLk6GJQsqaUBKTNV-1" source="HSAPeW3og0Ia34DbzU-y-6">
          <mxGeometry relative="1" as="geometry">
            <mxPoint x="200" y="680" as="targetPoint" />
          </mxGeometry>
        </mxCell>
        <mxCell id="HSAPeW3og0Ia34DbzU-y-6" value="Are there any Player gets a double?" style="rhombus;whiteSpace=wrap;html=1;" vertex="1" parent="WIyWlLk6GJQsqaUBKTNV-1">
          <mxGeometry x="274" y="490" width="280" height="110" as="geometry" />
        </mxCell>
        <mxCell id="HSAPeW3og0Ia34DbzU-y-25" value="" style="edgeStyle=orthogonalEdgeStyle;rounded=0;orthogonalLoop=1;jettySize=auto;html=1;" edge="1" parent="WIyWlLk6GJQsqaUBKTNV-1" source="HSAPeW3og0Ia34DbzU-y-12" target="HSAPeW3og0Ia34DbzU-y-24">
          <mxGeometry relative="1" as="geometry" />
        </mxCell>
        <mxCell id="HSAPeW3og0Ia34DbzU-y-26" value="yes" style="edgeLabel;html=1;align=center;verticalAlign=middle;resizable=0;points=[];" vertex="1" connectable="0" parent="HSAPeW3og0Ia34DbzU-y-25">
          <mxGeometry x="-0.2111" y="3" relative="1" as="geometry">
            <mxPoint as="offset" />
          </mxGeometry>
        </mxCell>
        <mxCell id="HSAPeW3og0Ia34DbzU-y-28" value="" style="edgeStyle=orthogonalEdgeStyle;rounded=0;orthogonalLoop=1;jettySize=auto;html=1;" edge="1" parent="WIyWlLk6GJQsqaUBKTNV-1" source="HSAPeW3og0Ia34DbzU-y-12" target="HSAPeW3og0Ia34DbzU-y-27">
          <mxGeometry relative="1" as="geometry" />
        </mxCell>
        <mxCell id="HSAPeW3og0Ia34DbzU-y-12" value="Are both player gets double?" style="rhombus;whiteSpace=wrap;html=1;" vertex="1" parent="WIyWlLk6GJQsqaUBKTNV-1">
          <mxGeometry x="110" y="680" width="180" height="80" as="geometry" />
        </mxCell>
        <mxCell id="HSAPeW3og0Ia34DbzU-y-18" value="no" style="edgeStyle=orthogonalEdgeStyle;rounded=0;orthogonalLoop=1;jettySize=auto;html=1;" edge="1" parent="WIyWlLk6GJQsqaUBKTNV-1" source="HSAPeW3og0Ia34DbzU-y-13" target="HSAPeW3og0Ia34DbzU-y-15">
          <mxGeometry relative="1" as="geometry" />
        </mxCell>
        <mxCell id="HSAPeW3og0Ia34DbzU-y-19" value="yes" style="edgeStyle=orthogonalEdgeStyle;rounded=0;orthogonalLoop=1;jettySize=auto;html=1;" edge="1" parent="WIyWlLk6GJQsqaUBKTNV-1" source="HSAPeW3og0Ia34DbzU-y-13" target="HSAPeW3og0Ia34DbzU-y-14">
          <mxGeometry relative="1" as="geometry" />
        </mxCell>
        <mxCell id="HSAPeW3og0Ia34DbzU-y-13" value="is player1 &amp;gt; player2" style="rhombus;whiteSpace=wrap;html=1;" vertex="1" parent="WIyWlLk6GJQsqaUBKTNV-1">
          <mxGeometry x="540" y="680" width="200" height="80" as="geometry" />
        </mxCell>
        <mxCell id="HSAPeW3og0Ia34DbzU-y-14" value="Player1 wins" style="rounded=1;whiteSpace=wrap;html=1;" vertex="1" parent="WIyWlLk6GJQsqaUBKTNV-1">
          <mxGeometry x="680" y="820" width="120" height="60" as="geometry" />
        </mxCell>
        <mxCell id="HSAPeW3og0Ia34DbzU-y-21" value="yes" style="edgeStyle=orthogonalEdgeStyle;rounded=0;orthogonalLoop=1;jettySize=auto;html=1;" edge="1" parent="WIyWlLk6GJQsqaUBKTNV-1" source="HSAPeW3og0Ia34DbzU-y-15" target="HSAPeW3og0Ia34DbzU-y-20">
          <mxGeometry relative="1" as="geometry" />
        </mxCell>
        <mxCell id="HSAPeW3og0Ia34DbzU-y-23" value="no" style="edgeStyle=orthogonalEdgeStyle;rounded=0;orthogonalLoop=1;jettySize=auto;html=1;" edge="1" parent="WIyWlLk6GJQsqaUBKTNV-1" source="HSAPeW3og0Ia34DbzU-y-15" target="HSAPeW3og0Ia34DbzU-y-22">
          <mxGeometry relative="1" as="geometry" />
        </mxCell>
        <mxCell id="HSAPeW3og0Ia34DbzU-y-15" value="is player1 = player2" style="rhombus;whiteSpace=wrap;html=1;" vertex="1" parent="WIyWlLk6GJQsqaUBKTNV-1">
          <mxGeometry x="464" y="820" width="150" height="80" as="geometry" />
        </mxCell>
        <mxCell id="HSAPeW3og0Ia34DbzU-y-20" value="Draw" style="rounded=1;whiteSpace=wrap;html=1;" vertex="1" parent="WIyWlLk6GJQsqaUBKTNV-1">
          <mxGeometry x="414" y="930" width="120" height="60" as="geometry" />
        </mxCell>
        <mxCell id="HSAPeW3og0Ia34DbzU-y-22" value="Player2 wins" style="rounded=1;whiteSpace=wrap;html=1;" vertex="1" parent="WIyWlLk6GJQsqaUBKTNV-1">
          <mxGeometry x="550" y="930" width="120" height="60" as="geometry" />
        </mxCell>
        <mxCell id="HSAPeW3og0Ia34DbzU-y-31" value="no" style="edgeStyle=orthogonalEdgeStyle;rounded=0;orthogonalLoop=1;jettySize=auto;html=1;" edge="1" parent="WIyWlLk6GJQsqaUBKTNV-1" source="HSAPeW3og0Ia34DbzU-y-24" target="HSAPeW3og0Ia34DbzU-y-30">
          <mxGeometry relative="1" as="geometry" />
        </mxCell>
        <mxCell id="HSAPeW3og0Ia34DbzU-y-32" value="yes" style="edgeStyle=orthogonalEdgeStyle;rounded=0;orthogonalLoop=1;jettySize=auto;html=1;" edge="1" parent="WIyWlLk6GJQsqaUBKTNV-1" source="HSAPeW3og0Ia34DbzU-y-24" target="HSAPeW3og0Ia34DbzU-y-29">
          <mxGeometry relative="1" as="geometry" />
        </mxCell>
        <mxCell id="HSAPeW3og0Ia34DbzU-y-24" value="is player1 &amp;gt; player2" style="rhombus;whiteSpace=wrap;html=1;" vertex="1" parent="WIyWlLk6GJQsqaUBKTNV-1">
          <mxGeometry x="40" y="800" width="120" height="80" as="geometry" />
        </mxCell>
        <mxCell id="HSAPeW3og0Ia34DbzU-y-27" value="The player gets double wins" style="rounded=1;whiteSpace=wrap;html=1;" vertex="1" parent="WIyWlLk6GJQsqaUBKTNV-1">
          <mxGeometry x="220" y="800" width="120" height="60" as="geometry" />
        </mxCell>
        <mxCell id="HSAPeW3og0Ia34DbzU-y-29" value="player1 wins" style="rounded=1;whiteSpace=wrap;html=1;" vertex="1" parent="WIyWlLk6GJQsqaUBKTNV-1">
          <mxGeometry x="-40" y="920" width="120" height="60" as="geometry" />
        </mxCell>
        <mxCell id="HSAPeW3og0Ia34DbzU-y-35" value="no" style="edgeStyle=orthogonalEdgeStyle;rounded=0;orthogonalLoop=1;jettySize=auto;html=1;" edge="1" parent="WIyWlLk6GJQsqaUBKTNV-1" source="HSAPeW3og0Ia34DbzU-y-30" target="HSAPeW3og0Ia34DbzU-y-34">
          <mxGeometry relative="1" as="geometry" />
        </mxCell>
        <mxCell id="HSAPeW3og0Ia34DbzU-y-36" value="yes" style="edgeStyle=orthogonalEdgeStyle;rounded=0;orthogonalLoop=1;jettySize=auto;html=1;" edge="1" parent="WIyWlLk6GJQsqaUBKTNV-1" source="HSAPeW3og0Ia34DbzU-y-30" target="HSAPeW3og0Ia34DbzU-y-33">
          <mxGeometry relative="1" as="geometry" />
        </mxCell>
        <mxCell id="HSAPeW3og0Ia34DbzU-y-30" value="is player1 = player2" style="rhombus;whiteSpace=wrap;html=1;" vertex="1" parent="WIyWlLk6GJQsqaUBKTNV-1">
          <mxGeometry x="100" y="910" width="120" height="80" as="geometry" />
        </mxCell>
        <mxCell id="HSAPeW3og0Ia34DbzU-y-33" value="draw" style="rounded=1;whiteSpace=wrap;html=1;" vertex="1" parent="WIyWlLk6GJQsqaUBKTNV-1">
          <mxGeometry x="30" y="1030" width="120" height="60" as="geometry" />
        </mxCell>
        <mxCell id="HSAPeW3og0Ia34DbzU-y-34" value="player2 wins" style="rounded=1;whiteSpace=wrap;html=1;" vertex="1" parent="WIyWlLk6GJQsqaUBKTNV-1">
          <mxGeometry x="170" y="1030" width="120" height="60" as="geometry" />
        </mxCell>
        <mxCell id="HSAPeW3og0Ia34DbzU-y-45" value="" style="shape=flexArrow;endArrow=classic;html=1;rounded=0;width=43;endSize=8.67;" edge="1" parent="WIyWlLk6GJQsqaUBKTNV-1">
          <mxGeometry width="50" height="50" relative="1" as="geometry">
            <mxPoint x="368.5" y="1160" as="sourcePoint" />
            <mxPoint x="368.5" y="1209" as="targetPoint" />
          </mxGeometry>
        </mxCell>
        <mxCell id="HSAPeW3og0Ia34DbzU-y-49" value="0" style="edgeStyle=orthogonalEdgeStyle;rounded=0;orthogonalLoop=1;jettySize=auto;html=1;" edge="1" parent="WIyWlLk6GJQsqaUBKTNV-1" source="HSAPeW3og0Ia34DbzU-y-46" target="HSAPeW3og0Ia34DbzU-y-48">
          <mxGeometry relative="1" as="geometry" />
        </mxCell>
        <mxCell id="HSAPeW3og0Ia34DbzU-y-51" value="non 0 input" style="edgeStyle=orthogonalEdgeStyle;rounded=0;orthogonalLoop=1;jettySize=auto;html=1;" edge="1" parent="WIyWlLk6GJQsqaUBKTNV-1" source="HSAPeW3og0Ia34DbzU-y-46" target="HSAPeW3og0Ia34DbzU-y-50">
          <mxGeometry relative="1" as="geometry" />
        </mxCell>
        <mxCell id="HSAPeW3og0Ia34DbzU-y-46" value="press 0 to quit the program" style="rhombus;whiteSpace=wrap;html=1;" vertex="1" parent="WIyWlLk6GJQsqaUBKTNV-1">
          <mxGeometry x="274" y="1300" width="190" height="80" as="geometry" />
        </mxCell>
        <mxCell id="HSAPeW3og0Ia34DbzU-y-48" value="progrom stop" style="rounded=1;whiteSpace=wrap;html=1;" vertex="1" parent="WIyWlLk6GJQsqaUBKTNV-1">
          <mxGeometry x="510" y="1310" width="120" height="60" as="geometry" />
        </mxCell>
        <mxCell id="HSAPeW3og0Ia34DbzU-y-50" value="round ++" style="rounded=1;whiteSpace=wrap;html=1;" vertex="1" parent="WIyWlLk6GJQsqaUBKTNV-1">
          <mxGeometry x="310" y="1420" width="120" height="60" as="geometry" />
        </mxCell>
        <mxCell id="HSAPeW3og0Ia34DbzU-y-61" value="" style="edgeStyle=orthogonalEdgeStyle;rounded=0;orthogonalLoop=1;jettySize=auto;html=1;" edge="1" parent="WIyWlLk6GJQsqaUBKTNV-1" source="HSAPeW3og0Ia34DbzU-y-53" target="HSAPeW3og0Ia34DbzU-y-54">
          <mxGeometry relative="1" as="geometry" />
        </mxCell>
        <mxCell id="HSAPeW3og0Ia34DbzU-y-62" value="" style="edgeStyle=orthogonalEdgeStyle;rounded=0;orthogonalLoop=1;jettySize=auto;html=1;" edge="1" parent="WIyWlLk6GJQsqaUBKTNV-1" source="HSAPeW3og0Ia34DbzU-y-53" target="HSAPeW3og0Ia34DbzU-y-55">
          <mxGeometry relative="1" as="geometry" />
        </mxCell>
        <mxCell id="HSAPeW3og0Ia34DbzU-y-53" value="is the round number a double?" style="rhombus;whiteSpace=wrap;html=1;" vertex="1" parent="WIyWlLk6GJQsqaUBKTNV-1">
          <mxGeometry x="320" y="110" width="190" height="80" as="geometry" />
        </mxCell>
        <mxCell id="HSAPeW3og0Ia34DbzU-y-64" value="" style="edgeStyle=orthogonalEdgeStyle;rounded=0;orthogonalLoop=1;jettySize=auto;html=1;" edge="1" parent="WIyWlLk6GJQsqaUBKTNV-1" source="HSAPeW3og0Ia34DbzU-y-54" target="HSAPeW3og0Ia34DbzU-y-0">
          <mxGeometry relative="1" as="geometry" />
        </mxCell>
        <mxCell id="HSAPeW3og0Ia34DbzU-y-54" value="human is the player2" style="rounded=1;whiteSpace=wrap;html=1;" vertex="1" parent="WIyWlLk6GJQsqaUBKTNV-1">
          <mxGeometry x="520" y="210" width="120" height="60" as="geometry" />
        </mxCell>
        <mxCell id="HSAPeW3og0Ia34DbzU-y-63" value="" style="edgeStyle=orthogonalEdgeStyle;rounded=0;orthogonalLoop=1;jettySize=auto;html=1;" edge="1" parent="WIyWlLk6GJQsqaUBKTNV-1" source="HSAPeW3og0Ia34DbzU-y-55" target="HSAPeW3og0Ia34DbzU-y-0">
          <mxGeometry relative="1" as="geometry" />
        </mxCell>
        <mxCell id="HSAPeW3og0Ia34DbzU-y-55" value="Human is the player1" style="rounded=1;whiteSpace=wrap;html=1;" vertex="1" parent="WIyWlLk6GJQsqaUBKTNV-1">
          <mxGeometry x="180" y="210" width="120" height="60" as="geometry" />
        </mxCell>
        <mxCell id="HSAPeW3og0Ia34DbzU-y-70" value="" style="edgeStyle=elbowEdgeStyle;elbow=horizontal;endArrow=classic;html=1;curved=0;rounded=0;endSize=8;startSize=8;exitX=0;exitY=0.5;exitDx=0;exitDy=0;" edge="1" parent="WIyWlLk6GJQsqaUBKTNV-1" source="HSAPeW3og0Ia34DbzU-y-50">
          <mxGeometry width="50" height="50" relative="1" as="geometry">
            <mxPoint x="270" y="1530" as="sourcePoint" />
            <mxPoint x="350" y="-70" as="targetPoint" />
            <Array as="points">
              <mxPoint x="-70" y="1030" />
            </Array>
          </mxGeometry>
        </mxCell>
      </root>
    </mxGraphModel>
  </diagram>
</mxfile>
